# xmcd
#
# Track frame offsets:
#	150
#	15067
#	33052
#	51362
#	65980
#	82885
#	99867
#	115236
#	134008
#	150690
#	165384
#	180499
#	197627
#	212507
#	227975
#	244899
#	262053
#	275320
#	293517
#	306949
#	323089
#
# Disc length: 4546 seconds
#
# Revision: 0
# Processed by: cddbd v1.5.2PL0 Copyright (c) Steve Scherf et al.
# Submitted via: EasyCDDAExtractor 2010.6.0.0
#
DISCID=1b11c015
DTITLE=Various Artist - Hitbox 2002-10
DYEAR=2002
DGENRE=Pop
TTITLE0=Intenso Project - Luv Da Sunshine
TTITLE1=The Sound Bluntz - Billie Jean
TTITLE2=Lil' Wayne feat. TQ - Way Of Life
TTITLE3=Romeo - The Answer Is Yes
TTITLE4=Kate Ryan - Mon Coeur Resiste Encore
TTITLE5=Yanou feat. Do - On And On
TTITLE6=Atomic Kitten - The Tide Is High
TTITLE7=Zucchero - I Lay Down
TTITLE8=Anastacia - Why'd You Lie To Me
TTITLE9=Mental Theo - Revolution
TTITLE10=Beenie Man feat. Janet - Feel It Baby
TTITLE11=Ronan Keating - I Love It When We Do
TTITLE12=Sophie Ellis-Bextor - Get Over You
TTITLE13=Scooter - Nessaja
TTITLE14=Addictive - Truth Hurts
TTITLE15=Afu-Ra feat. Tina Marie - Open
TTITLE16=Bon Jovi - Everyday
TTITLE17=April Lavigne - Complicated
TTITLE18=Etienne - Bang Bang
TTITLE19=Het Gebaar - Als Ik Jou Was
TTITLE20=André Hazes - Bloed, Zweet En Tranen
EXTD=
EXTT0=
EXTT1=
EXTT2=
EXTT3=
EXTT4=
EXTT5=
EXTT6=
EXTT7=
EXTT8=
EXTT9=
EXTT10=
EXTT11=
EXTT12=
EXTT13=
EXTT14=
EXTT15=
EXTT16=
EXTT17=
EXTT18=
EXTT19=
EXTT20=
PLAYORDER=
